<svg width="208" height="67" viewBox="0 0 208 67" fill="none" xmlns="http://www.w3.org/2000/svg">
<path d="M5.05652 6.1511C5.04393 6.3534 5.04393 6.55629 5.05652 6.75858C4.99701 8.38853 5.04769 10.0206 5.20822 11.6437C5.2194 11.775 5.2624 11.9016 5.33351 12.0125C5.40461 12.1234 5.50166 12.2152 5.61624 12.2801C5.73082 12.3449 5.85947 12.3808 5.99103 12.3846C6.1226 12.3884 6.2531 12.36 6.37122 12.3018C6.70159 12.1684 7.05198 12.0914 7.4078 12.074H8.62137C8.8742 12.074 8.92476 12.074 8.92476 11.5425C8.92476 9.74536 8.92476 9.01132 8.92476 7.74574C8.92476 7.56856 8.92476 6.70796 8.92476 6.22704C8.92476 5.18926 8.67193 5.51831 8.03987 5.51831C7.86289 5.51831 7.71119 5.51831 7.71119 5.13864C7.71119 4.75896 8.62137 4.65771 9.4557 4.65771C10.6945 4.65771 13.956 4.65771 13.956 5.16395C13.9415 5.25142 13.9031 5.33317 13.8451 5.40017C13.7871 5.46717 13.7117 5.51682 13.6273 5.54362H13.3492C13.2485 5.53092 13.1466 5.53092 13.0458 5.54362C12.9475 5.55729 12.8558 5.60114 12.7833 5.66913C12.7109 5.73712 12.6613 5.82592 12.6413 5.9233C12.6413 5.9233 12.6413 6.10048 12.6413 6.20173C12.6413 7.26482 12.6413 8.02417 12.6413 8.73289C12.6413 11.669 12.6413 14.5799 12.439 17.4654C12.4516 17.5747 12.4516 17.6852 12.439 17.7945C12.439 18.0729 12.439 18.4273 12.439 18.731C12.439 19.9207 13.6779 19.0854 13.6779 19.6929C13.6779 19.8953 13.5262 20.2244 12.8183 20.2244H8.19156C7.66063 20.2244 7.28139 20.2244 7.28139 19.7182C7.28139 19.2119 8.39383 19.7182 8.54552 18.8576C8.77966 17.1808 8.8811 15.488 8.84891 13.7952C8.84891 12.9093 8.46967 12.6562 7.88817 12.6562C6.88595 12.8433 5.9263 13.2122 5.05652 13.7446C4.41502 14.0165 3.72993 14.1709 3.03391 14.2002C1.99733 14.2002 1.39054 13.8205 1.39054 12.6562C1.39054 12.2512 1.39054 11.8209 1.39054 11.4919C1.41583 10.125 1.26413 8.73289 1.26413 7.59387C1.26413 7.36606 1.26413 6.75858 1.26413 6.45484C1.2823 6.29505 1.2823 6.13371 1.26413 5.97392C1.26413 5.77143 0.910174 5.69549 0.657348 5.69549C0.404522 5.69549 0 5.56893 0 5.21457C0 4.86021 1.21357 4.65771 2.52826 4.65771C3.84296 4.65771 4.2222 4.65771 4.5003 4.65771H5.35991C5.86556 4.65771 6.32065 4.65771 6.32065 5.16395C6.32065 5.67018 6.06783 5.493 5.78972 5.51831C5.69866 5.50353 5.60547 5.50888 5.51669 5.53399C5.42791 5.5591 5.34571 5.60336 5.27583 5.66366C5.20596 5.72396 5.15012 5.79885 5.11224 5.88306C5.07435 5.96726 5.05533 6.05875 5.05652 6.1511Z" fill="white"/>
<path d="M20.9591 5.51776C20.5293 5.51776 20.4029 5.34058 20.4029 5.18871C20.4029 5.03684 20.6305 5.06215 20.8074 5.06215C23.3385 4.96877 25.873 5.05335 28.3922 5.31527C28.645 5.54307 28.3922 5.92275 27.8613 5.92275C27.7496 5.91716 27.6386 5.94257 27.5404 5.99617C27.4423 6.04977 27.3608 6.12947 27.3051 6.22649C27.8692 10.3806 28.8171 14.4733 30.1367 18.452C30.516 19.4645 30.5665 19.4898 31.4767 19.5657C32.3869 19.6417 32.4374 19.7935 32.4374 19.996C32.4374 20.1985 31.7801 20.2492 28.6956 20.2492C24.7768 20.2492 23.9931 20.2492 25.4089 19.5404C26.1421 19.2367 26.1674 19.1861 26.0662 18.528C25.9651 17.8699 25.7123 17.3889 25.5353 16.8068L25.2825 16.3258C25.2317 16.1762 25.1369 16.0453 25.0106 15.9505C24.8843 15.8556 24.7323 15.8012 24.5746 15.7943H24.1447C23.2787 15.7056 22.4284 15.5013 21.6165 15.1868C21.1032 14.9541 20.5576 14.8005 19.9984 14.7312C19.4238 16.1322 18.9424 17.5696 18.5573 19.0342C18.5573 19.2367 18.5573 19.4392 18.5573 19.4645C18.7408 19.5833 18.9478 19.661 19.1641 19.6923C19.6192 19.6923 19.8973 19.9201 19.8973 20.0973C19.8973 20.2745 17.8747 20.6541 16.5347 20.3504C15.1947 20.0467 15.397 19.5657 16.5347 19.5657C16.8642 19.5804 17.1927 19.5198 17.4954 19.3886C18.1253 17.9229 18.6327 16.4074 19.0124 14.8578C19.0124 14.5034 18.0516 14.6047 17.4701 15.0603C16.8886 15.5159 16.5094 15.4653 16.5094 15.0603C16.5094 14.6553 17.4449 14.0731 18.4309 13.8959H18.8607C18.985 13.8728 19.1004 13.8157 19.1942 13.7307C19.2879 13.6458 19.3563 13.5365 19.3916 13.415L19.9478 11.2382C20.3271 9.82075 20.8327 8.07424 21.0856 7.36552C21.5406 6.024 21.4901 5.69495 21.0856 5.69495L20.9591 5.51776ZM23.2093 8.6311C22.9975 7.85432 22.6919 7.10632 22.2991 6.40367C21.3544 8.71913 20.6594 11.129 20.2259 13.5922C20.2259 13.8706 20.6557 14.0731 21.7682 14.3768C24.2964 15.035 24.2964 15.0856 24.6504 14.7312C25.0044 14.3769 24.5493 12.8835 23.2093 8.6311Z" fill="white"/>
<path d="M44.3204 6.5557C43.2754 5.92401 42.0774 5.59134 40.8567 5.59385C40.1368 5.52096 39.4098 5.61626 38.733 5.87228C38.2113 7.74342 37.9393 9.67544 37.9239 11.618C37.9239 14.1492 37.7217 19.6671 41.1601 19.6671C42.0779 19.7761 43.0064 19.5894 43.8111 19.1343C44.6158 18.6792 45.2547 17.9792 45.6351 17.136C45.8121 16.7816 45.9132 15.8198 46.4442 15.8198C46.9751 15.8198 46.7981 15.9716 46.7981 16.1994C46.6574 16.9478 46.3591 17.6576 45.9232 18.2817C45.4873 18.9058 44.9237 19.4298 44.2699 19.819C43.503 20.2606 42.6252 20.4715 41.7416 20.4265C40.2998 20.5671 38.8461 20.3362 37.5186 19.7559C36.191 19.1755 35.0338 18.2649 34.1568 17.1107C33.3156 15.7774 32.8685 14.2328 32.8674 12.6558C32.8322 11.6159 33.0108 10.5798 33.3922 9.6118C33.7736 8.64384 34.3496 7.76469 35.0846 7.02891C35.8195 6.29313 36.6976 5.71642 37.6645 5.33458C38.6313 4.95274 39.6663 4.77391 40.705 4.80919C41.7979 4.71934 42.8944 4.93144 43.8751 5.42238C44.8559 5.91332 45.6833 6.66429 46.2672 7.59348C46.8234 8.63125 47.2279 9.77028 45.4581 9.77028C45.2784 9.78449 45.0976 9.76078 44.9275 9.70069C44.7575 9.64059 44.6019 9.54545 44.4708 9.42141C44.3398 9.29737 44.2362 9.14719 44.1667 8.98056C44.0973 8.81394 44.0635 8.63458 44.0676 8.45407C44.0732 8.14969 44.1605 7.85242 44.3204 7.59348C44.548 7.18849 44.6997 6.75819 44.3204 6.45445V6.5557Z" fill="white"/>
<path d="M60.6784 5.06267C62.2788 5.65508 63.597 6.83017 64.3697 8.35318C64.9583 9.99638 65.0951 11.7677 64.766 13.482C64.4369 15.1962 63.6539 16.7905 62.4988 18.0982C61.9324 18.6458 61.2945 19.1141 60.6026 19.4903C59.5135 20.0529 58.2747 20.2567 57.063 20.0725C55.8756 20.2302 54.6678 20.055 53.574 19.5663C51.9916 18.7439 50.7283 17.4168 49.9839 15.7948C49.1632 13.5212 49.1632 11.0318 49.9839 8.75817C50.529 7.66203 51.3229 6.70883 52.3019 5.97483C53.2809 5.24084 54.4179 4.74642 55.6219 4.53112C57.3258 4.3188 59.0557 4.50064 60.6784 5.06267ZM55.6219 5.41703C54.914 5.41703 54.7623 5.84733 54.3325 8.15069C53.6499 11.669 54.3325 18.2754 55.4197 19.1106C56.0388 19.3511 56.7048 19.4463 57.3664 19.3891C59.3637 19.3891 59.4649 19.3891 60.1222 16.8579C60.9565 13.4155 60.6279 6.73324 59.5407 5.74608C58.266 5.39483 56.9373 5.28326 55.6219 5.41703Z" fill="white"/>
<path d="M67.1506 4.91022C69.7822 4.58287 72.447 4.63401 75.0641 5.06209C78.1738 5.61894 79.5897 6.35298 80.3229 7.77044C80.5835 8.63083 80.5126 9.55779 80.1242 10.3684C79.7357 11.1791 79.0579 11.8145 78.2244 12.1494C77.7578 12.4086 77.255 12.5963 76.7327 12.7062C76.2018 12.7062 76.2776 13.0606 76.7327 13.2124C77.8759 13.7534 78.8217 14.6383 79.438 15.7436C79.6473 16.2254 79.7754 16.7386 79.8172 17.2623C79.7285 17.8183 79.4807 18.3366 79.1038 18.7544C78.7268 19.1722 78.2369 19.4716 77.6935 19.6163C74.3575 20.2177 70.9554 20.3624 67.5804 20.0466C67.5804 20.0466 67.7827 19.6922 68.1872 19.5151C69.0215 19.1354 69.0721 19.1101 68.7434 17.7179C68.617 17.1864 68.44 14.2502 68.3642 11.1875C68.2631 5.84675 68.2631 5.61894 67.8333 5.54301C67.4035 5.46707 66.9989 5.18865 67.1759 4.91022H67.1506ZM78.6542 15.9208C78.323 15.2803 77.8543 14.7211 77.2816 14.2835C76.709 13.8459 76.0467 13.5406 75.3422 13.3896C74.3818 13.1572 73.3975 13.0382 72.4094 13.0353C72.3626 13.0516 72.3201 13.0783 72.2851 13.1133C72.2501 13.1484 72.2234 13.1909 72.2071 13.2378C72.0806 14.6046 72.1231 15.9818 72.3336 17.3383C72.6622 19.2619 72.8898 19.4138 75.2411 19.1354C78.6795 18.7304 79.615 17.8192 78.6542 15.8195V15.9208ZM75.8478 11.9469C80.424 10.985 80.778 7.44138 76.4799 6.12518C75.3597 5.76365 74.1929 5.56753 73.0162 5.54301C72.7128 5.54301 72.5105 5.99862 72.4853 6.53016L72.106 11.1622C72.106 11.6178 72.106 12.124 72.4347 12.1747C73.576 12.3319 74.7374 12.2544 75.8478 11.9469Z" fill="white"/>
<path d="M94.5317 5.06245C96.12 5.66453 97.4271 6.83775 98.1977 8.35296C98.7896 9.99396 98.9306 11.764 98.6059 13.4781C98.2813 15.1923 97.5029 16.7878 96.3521 18.098C95.7765 18.6458 95.1302 19.114 94.4306 19.4901C93.394 20.0216 93.1412 20.0723 90.891 20.0723C89.7036 20.23 88.4958 20.0547 87.402 19.566C85.8219 18.7487 84.5652 17.4192 83.8372 15.7946C83.0165 13.521 83.0165 11.0316 83.8372 8.75795C84.3703 7.68455 85.142 6.74771 86.093 6.01935C87.0441 5.29099 88.1492 4.79047 89.3235 4.55621C91.0752 4.31472 92.8591 4.48811 94.5317 5.06245ZM89.4752 5.44212C88.742 5.44212 88.5903 5.87242 88.1605 8.17578C87.5031 11.6941 88.1605 18.3005 89.2476 19.1357C89.8675 19.3736 90.5328 19.4687 91.1944 19.4142C93.1917 19.4142 93.2929 19.4142 93.9502 16.883C94.8098 13.4406 94.4811 6.75833 93.394 5.77117C92.0806 5.3955 90.7074 5.27521 89.3488 5.41681L89.4752 5.44212Z" fill="white"/>
<path d="M116.426 19.7685C116.426 19.7685 116.3 20.2494 115.744 20.2494C114.252 20.2494 113.519 20.0975 112.053 20.0975H111.37C110.814 20.0975 110.308 19.9204 110.308 19.5913C110.32 19.4971 110.364 19.41 110.433 19.3453C110.503 19.2805 110.593 19.2421 110.687 19.2369H111.244C111.825 19.2369 111.724 14.7821 111.8 13.0356C111.8 11.77 111.8 10.5044 111.8 9.21352C111.8 8.80854 111.8 8.40355 111.8 7.97325C111.8 7.54295 111.446 7.13796 111.244 7.77076C111.041 8.40355 110.965 9.03634 110.814 9.51726C109.777 12.6053 108.564 15.668 107.426 18.756C107.021 19.7685 107.097 20.1735 105.606 20.1735H103.077H102.192C101.737 20.1735 101.586 19.9204 101.586 19.7685C101.586 18.9332 102.85 19.7685 102.85 18.7813C102.85 18.3004 102.85 17.617 102.85 17.3386C102.723 14.3012 102.622 11.2385 102.622 8.17574V7.01141C102.597 6.86061 102.597 6.7066 102.622 6.5558V6.32799C102.633 6.2377 102.625 6.14609 102.599 6.05896C102.573 5.97183 102.529 5.89106 102.47 5.82176H102.344H102.192H101.788C101.681 5.82176 101.578 5.77909 101.502 5.70314C101.426 5.62719 101.383 5.52418 101.383 5.41677C101.383 5.06241 101.94 4.96116 102.319 4.96116H103.178L106.187 5.06241C107.047 5.06241 107.906 5.06241 107.906 5.56864C107.906 6.07487 107.401 5.94832 107.198 5.94832C107.055 5.9577 106.912 5.9577 106.769 5.94832C106.592 5.94832 106.465 6.3533 106.465 6.98609C106.465 7.61889 106.465 7.69482 106.465 7.99856C106.465 9.13759 106.465 10.3272 106.465 11.4916C106.465 13.4406 106.465 15.4655 106.642 17.4398C106.642 18.0979 106.996 18.3004 107.173 17.8448C107.35 17.3892 107.502 16.7311 107.578 16.5286C108.69 13.5671 109.727 10.631 110.738 7.61889V7.26452C110.991 6.02425 110.738 5.11303 112.23 5.11303H115.794C116.275 5.11303 116.755 5.23959 116.755 5.6952C116.755 6.15081 115.39 5.44208 115.39 6.5558C115.39 7.01141 115.39 7.54295 115.39 7.72013C115.39 11.3903 115.137 15.0858 115.112 18.7813C115.113 18.971 115.179 19.1545 115.299 19.3018C115.418 19.449 115.584 19.5511 115.769 19.5913C116.3 19.4901 116.426 19.6166 116.426 19.7685ZM110.359 2.05032C109.878 2.48473 109.353 2.86657 108.791 3.18934C108.639 3.29494 108.458 3.35151 108.273 3.35151C108.088 3.35151 107.907 3.29494 107.755 3.18934C106.909 2.38162 106.267 1.38379 105.884 0.278501C105.884 0.0506962 106.136 -0.101174 106.415 0.0760079C106.623 0.208176 106.818 0.360799 106.996 0.531618L107.249 0.759423C107.629 1.08193 108.055 1.34635 108.513 1.54408C109.11 1.35576 109.673 1.07383 110.182 0.7088C111.016 0.25319 111.37 0.0506962 111.597 0.10132C111.698 0.12521 111.786 0.184357 111.846 0.267984C111.907 0.351612 111.935 0.454154 111.926 0.55693C111.926 0.810046 111.446 1.18972 110.409 2.02501L110.359 2.05032Z" fill="white"/>
<path d="M135.97 8.27706C135.97 11.6435 135.97 14.5037 136.273 17.5918C136.273 18.1992 136.122 19.237 136.804 19.237H138.372C139.762 19.237 139.636 18.8827 139.611 18.2752C139.598 18.1658 139.598 18.0554 139.611 17.9461C139.889 14.7315 139.914 11.4663 139.914 8.25175C139.914 7.51771 139.914 6.78367 139.914 6.07495C139.914 5.36622 138.751 5.84714 138.751 5.23966C138.751 4.63218 139.383 4.70812 139.99 4.70812C141.33 4.70812 142.518 4.70812 143.883 4.70812H144.338C144.793 4.70812 144.996 4.96123 144.996 5.16373C144.996 5.36622 144.01 5.5434 144.01 5.5434C144.01 5.5434 143.732 5.82183 143.732 6.50524C143.732 7.18866 143.732 7.13804 143.732 7.44178C143.732 10.6057 143.732 13.7444 143.555 16.9083C143.555 17.5158 143.428 18.4777 143.428 18.832C143.428 19.1864 144.667 18.832 144.667 19.6673C144.499 20.6972 144.005 21.6461 143.259 22.3749C142.513 23.1037 141.553 23.5741 140.521 23.7172C138.7 23.7172 137.335 22.401 135.616 22.401C134.908 22.401 134.782 22.8819 134.428 22.8819C134.334 22.8976 134.238 22.8778 134.159 22.8262C134.079 22.7747 134.022 22.6952 133.998 22.6035C133.998 21.4391 136.526 21.1101 137.108 21.1101C138.144 21.1101 139.257 21.3632 140.293 21.3632C141.33 21.3632 143.125 20.8063 143.125 20.0217C143.125 20.0217 142.948 20.0217 142.796 20.0217C139.686 20.0217 136.627 20.1735 133.593 20.1735C132.759 20.1735 131.95 20.1735 131.95 19.7179C131.95 19.2623 132.481 19.5154 132.481 18.9586C132.481 15.3896 132.228 11.5929 132.228 7.9227C132.228 7.51771 132.228 7.08741 132.228 6.65711C132.253 6.35371 132.201 6.04888 132.076 5.77121C132.076 5.77121 131.925 5.77121 131.823 5.77121H131.47C131.191 5.77121 130.964 5.5434 130.964 5.34091C130.964 4.73343 133.492 4.80936 135.742 4.80936C136.425 4.80936 137.082 4.80936 137.082 5.29028C137.082 5.77121 136.728 5.72058 136.45 5.72058H136.248C136.208 5.6898 136.159 5.6731 136.109 5.6731C136.059 5.6731 136.01 5.6898 135.97 5.72058C135.866 6.56955 135.866 7.4281 135.97 8.27706Z" fill="white"/>
<path d="M150.179 4.68274C156.98 4.40431 159.078 4.45494 159.356 4.68274C159.634 4.91055 159.356 7.6189 158.926 7.6189C158.497 7.6189 158.623 7.34047 158.623 6.47987V5.99895C158.63 5.92283 158.621 5.84601 158.596 5.77374C158.571 5.70147 158.531 5.63545 158.478 5.58018C158.425 5.52492 158.361 5.48171 158.29 5.45351C158.219 5.42531 158.143 5.41278 158.067 5.41678H153.516C153.299 5.40616 153.083 5.44059 152.881 5.51791C152.678 5.59523 152.494 5.71374 152.339 5.86597C152.185 6.01821 152.064 6.20085 151.983 6.40236C151.903 6.60387 151.865 6.81987 151.873 7.03673V8.65667C151.764 9.80155 151.764 10.9542 151.873 12.0991C151.873 12.0991 152.479 12.0991 153.137 11.77C154.704 11.0866 155.892 11.1372 156.626 11.77C157.359 12.4028 157.131 12.4534 156.954 12.6306C156.777 12.8078 156.525 12.7572 156.069 12.4281C155.614 12.0991 154.628 11.8966 152.808 12.7065L152.176 12.985C151.993 13.067 151.839 13.203 151.735 13.3749C151.631 13.5468 151.582 13.7463 151.594 13.9468V16.0224C151.571 17.0563 151.699 18.0881 151.974 19.0851C152.151 19.3129 152.833 19.3635 154.805 19.3382H156.499C156.614 19.3416 156.729 19.3218 156.836 19.2801C156.943 19.2384 157.041 19.1755 157.124 19.0953C157.206 19.015 157.272 18.919 157.316 18.8129C157.361 18.7068 157.384 18.5928 157.384 18.4776V17.617C157.384 16.3261 157.561 15.9211 157.814 15.9211C158.067 15.9211 158.117 16.3008 158.117 18.022V19.0598C158.125 19.2013 158.102 19.3428 158.051 19.475C158.001 19.6073 157.923 19.7274 157.822 19.8276C157.722 19.9279 157.602 20.0059 157.47 20.0568C157.338 20.1076 157.197 20.1301 157.055 20.1229L152.631 20.2494C150.86 20.3495 149.084 20.2987 147.322 20.0975C147.195 20.0975 147.322 19.8951 147.322 19.8191L148.181 19.5154H148.459C148.538 19.4918 148.604 19.4398 148.647 19.3696C148.689 19.2994 148.703 19.216 148.687 19.1357L148.434 17.9714C148.153 15.7211 148.009 13.4557 148.004 11.1878V6.12551C148.003 6.0411 147.976 5.95913 147.926 5.89105C147.876 5.82298 147.806 5.7722 147.726 5.74583L147.372 5.61927C147.17 5.61927 147.069 5.34084 147.094 5.2396C147.119 5.13835 148.105 4.93586 150.254 4.85992L150.179 4.68274Z" fill="white"/>
<path d="M168.205 5.0626C168.205 5.23978 167.953 5.44228 167.599 5.4929H167.27C167.222 5.4858 167.172 5.48886 167.125 5.50187C167.078 5.51489 167.034 5.53758 166.996 5.56851C166.958 5.59944 166.926 5.63794 166.904 5.68156C166.882 5.72519 166.868 5.77299 166.865 5.82195V8.75811C166.764 9.90331 166.764 11.0553 166.865 12.2005C167.32 12.2221 167.773 12.1262 168.18 11.9221C169.148 11.6311 170.153 11.4777 171.163 11.4665H171.922C172.002 11.4704 172.081 11.4572 172.155 11.4277C172.229 11.3983 172.296 11.3532 172.351 11.2956C172.406 11.238 172.448 11.1692 172.475 11.0939C172.501 11.0185 172.511 10.9384 172.503 10.859C172.503 9.18841 172.503 7.36596 172.503 5.79664C172.511 5.70656 172.483 5.61707 172.427 5.54649C172.371 5.47592 172.289 5.42958 172.2 5.41697H171.871C171.517 5.41697 171.265 5.18916 171.265 5.01198C171.265 4.8348 171.796 4.70824 174.248 4.70824C176.7 4.70824 177.509 4.70824 177.509 5.01198C177.509 5.31572 176.549 5.36634 176.473 5.67008C176.397 5.97382 176.346 9.26434 176.271 12.9598L176.144 19.2371C176.145 19.3281 176.176 19.4163 176.23 19.489C176.285 19.5618 176.361 19.6154 176.448 19.6421H176.726C178.774 20.4015 171.669 20.5533 171.265 20.1484C170.86 19.7434 170.911 19.8193 171.492 19.5409C172.074 19.2625 172.428 19.1106 172.503 17.9716C172.623 16.828 172.682 15.6789 172.68 14.5292C172.68 12.7067 172.68 12.4536 172.327 12.2511C171.7 12.0573 171.041 11.9933 170.389 12.0629C169.737 12.1325 169.106 12.3344 168.534 12.6561L167.776 12.9345C167.561 13.021 167.376 13.167 167.242 13.3553C167.107 13.5437 167.029 13.7665 167.017 13.9976V14.7823C166.954 15.7938 166.954 16.8082 167.017 17.8197C167.169 19.2878 167.245 19.4396 167.725 19.5409C168.205 19.6421 168.256 19.794 168.256 19.9712C168.256 20.1484 167.75 20.2749 165.349 20.3255C162.947 20.3762 161.809 20.3255 162.82 19.6928H163.098C163.185 19.6604 163.258 19.6011 163.308 19.5236C163.358 19.4461 163.382 19.3546 163.376 19.2625V12.6561C163.376 8.9606 163.149 5.84726 163.073 5.77133C162.997 5.69539 162.062 5.46759 162.062 5.0626C162.062 4.65762 162.517 4.73355 164.186 4.6323C167.523 4.48043 168.205 4.6323 168.205 5.0626Z" fill="white"/>
<path d="M179.76 5.06249C179.76 4.91062 179.911 4.75875 180.038 4.75875C180.72 4.75875 182.844 4.75875 185.524 4.75875C187.517 4.55839 189.528 4.66079 191.491 5.06249C191.568 6.9124 191.424 8.76497 191.061 10.5804C190.792 9.76544 190.689 8.90481 190.757 8.04927V6.32807C190.758 6.13515 190.685 5.9493 190.553 5.80827C190.422 5.66723 190.242 5.58158 190.05 5.56872H189.367C188.837 5.52982 188.304 5.52982 187.774 5.56872C187.56 7.89081 187.492 10.2241 187.572 12.5547V19.0345C187.574 19.109 187.6 19.1809 187.645 19.24C187.691 19.2991 187.753 19.3423 187.825 19.3636H188.078C188.381 19.3636 188.634 19.6167 188.634 19.7939C188.634 19.9711 188.002 20.2495 185.575 20.2495C184.573 20.3227 183.567 20.3227 182.566 20.2495C182.111 20.0723 182.212 19.7179 182.793 19.4648H183.046C183.122 19.44 183.19 19.393 183.239 19.33C183.289 19.2669 183.318 19.1905 183.324 19.1105V14.2506C183.324 11.441 183.324 8.3277 183.324 7.34054V6.42932C183.328 6.3098 183.307 6.19082 183.262 6.07996C183.217 5.96911 183.15 5.8688 183.064 5.78545C182.979 5.7021 182.877 5.63753 182.765 5.59585C182.653 5.55418 182.533 5.53632 182.414 5.54341H181.681C181.531 5.53657 181.381 5.56031 181.24 5.6132C181.099 5.6661 180.97 5.74705 180.861 5.85116C180.753 5.95527 180.666 6.08037 180.607 6.2189C180.548 6.35743 180.518 6.50651 180.518 6.65713V7.74553C180.518 9.87171 180.189 10.4792 179.886 9.39079C179.704 7.95552 179.662 6.50595 179.76 5.06249Z" fill="white"/>
<path d="M200.617 19.4139C200.896 19.4139 201.806 19.4139 201.806 19.9201C201.806 20.4263 201.174 20.3504 200.415 20.3504H195.359C194.904 20.3504 194.777 20.0973 194.777 19.9707C194.777 19.2367 195.991 19.7176 195.991 19.0848C195.991 14.7312 195.839 11.1623 195.788 7.36552C195.788 7.21365 195.788 6.73273 195.788 6.32774C195.788 5.92276 195.788 5.74558 195.485 5.74558H195.106C194.853 5.74558 194.448 5.74558 194.448 5.34059C194.448 4.9356 195.611 4.83436 196.774 4.83436C198.396 4.81943 200.016 4.89549 201.629 5.06216C204.157 5.34059 208 6.15056 208 8.98547C208 11.8204 205.623 12.6557 203.095 12.9341C202.221 12.9735 201.398 13.3577 200.806 14.0027C200.214 14.6477 199.901 15.5011 199.935 16.3765C200.011 17.9205 200.188 19.4139 200.617 19.4139ZM200.617 12.4025C203.019 12.4025 207.115 11.6179 207.115 9.03609C207.115 6.4543 200.744 5.74558 200.44 5.74558C200.137 5.74558 199.808 6.32774 199.808 7.36552C199.808 7.94769 199.808 8.47924 199.808 8.75767C199.808 9.54233 199.808 10.327 199.808 11.137C199.808 11.3901 199.808 11.6432 199.808 11.8963C199.801 12.0093 199.835 12.1212 199.905 12.2101C199.975 12.299 200.076 12.3586 200.188 12.3772L200.617 12.4025Z" fill="white"/>
<path d="M47.8346 59.6593C48.1885 53.7111 47.9863 47.4591 47.9863 41.1058C47.9863 40.0934 47.9863 39.3087 47.6829 39.3087C47.3795 39.3087 45.9131 39.5872 45.9131 38.7519C45.9131 37.9166 46.6716 37.9166 47.6829 37.9166H48.9217C50.3083 37.7887 51.7015 37.7465 53.0933 37.79C54.1552 37.79 55.116 37.79 55.3688 38.3469C55.4063 38.4349 55.4257 38.5296 55.4257 38.6253C55.4257 38.721 55.4063 38.8157 55.3688 38.9037C55.3078 38.9847 55.2267 39.0483 55.1336 39.0883C55.0404 39.1283 54.9385 39.1432 54.8378 39.1315H54.1552C53.6496 39.1315 53.5484 39.5112 53.5484 40.2959C53.5484 41.0805 53.5484 43.713 53.5484 45.586C53.5484 47.4591 54.2563 48.1172 55.0401 47.13C55.8239 46.1429 57.2397 44.5989 57.442 44.2951C58.1751 43.4851 58.8831 42.5486 59.5657 41.764C60.1035 41.1999 60.6019 40.5994 61.0574 39.9668C61.3102 39.6125 61.0574 39.3593 60.6276 39.3847H59.8944C59.1612 39.3847 58.3774 39.3847 58.3774 38.8784C58.3774 38.0431 61.0827 37.9166 63.0294 37.9166C65.7094 37.9166 66.3667 37.9166 66.3667 38.6506C66.3667 39.3847 65.7599 39.334 65.2037 39.334C64.6475 39.334 64.243 39.334 63.8637 39.334C62.3468 39.334 60.6781 42.5233 59.1865 44.2698C58.7314 44.8267 58.2763 45.4341 57.7706 45.991C57.265 46.5479 55.4699 48.1172 55.4699 48.5222C55.4699 48.9272 57.1133 50.8762 57.9982 52.1164C59.6668 54.4704 61.2849 56.9256 63.0547 59.2796C63.3328 59.6593 63.0547 59.8871 63.9396 59.8871H65.1784C65.6335 59.8871 66.038 59.8871 66.1645 60.3174C66.2014 60.4011 66.2204 60.4917 66.2204 60.5832C66.2204 60.6747 66.2014 60.7652 66.1645 60.849C66.0723 60.9645 65.9513 61.0535 65.8136 61.1068C65.6759 61.1602 65.5265 61.176 65.3807 61.1527H64.5464C63.4845 61.1527 62.0181 61.4817 60.754 61.4817C59.9702 61.4817 58.7819 61.4817 58.7819 60.7224C58.7819 59.963 59.237 60.0896 59.7427 60.0896H61.3608C61.5883 60.0896 61.9928 60.0896 61.9928 59.8871C61.4924 59.0135 60.9438 58.1684 60.3495 57.3559C58.9083 55.331 55.0654 49.5093 54.762 49.5093C54.0035 49.5093 53.5484 51.0786 53.5484 52.3695C53.5484 53.6604 53.5484 54.3185 53.5484 54.9007C53.5484 56.2929 53.5484 57.6344 53.5484 59.0265C53.5484 59.7099 53.9782 59.7606 54.3828 59.7606H54.7114C55.0654 59.7606 55.3941 59.7605 55.3941 60.2668C55.3941 60.773 55.1665 60.9502 54.3322 60.9502H53.0428C50.8685 60.9502 49.6296 61.1274 47.4553 61.1274C46.9497 61.1274 46.3935 61.1274 46.3935 60.444C46.3935 59.7605 46.6463 59.9377 46.9244 59.8871H47.3542C47.4878 59.9124 47.6251 59.9124 47.7587 59.8871C47.818 59.8653 47.8704 59.8279 47.9104 59.7789C47.9504 59.73 47.9766 59.6712 47.9863 59.6087L47.8346 59.6593Z" fill="#B980D1"/>
<path d="M85.9609 50.2184C84.9244 53.3064 83.4327 56.2932 82.4719 59.3306C82.2697 59.9128 82.4719 60.2924 83.1546 60.419C83.8372 60.5456 83.9383 60.6721 83.9383 60.9506C83.9383 61.229 83.3315 61.7352 82.1938 61.7352C81.0561 61.7352 80.0195 61.558 79.5139 61.558C79.0082 61.558 77.3901 61.558 75.772 61.558C73.7747 61.558 72.0808 61.4315 72.0808 60.824C72.0808 60.2165 72.5359 60.1659 73.0921 60.1659C73.6483 60.1659 74.0023 60.1659 74.3815 60.1659C75.5445 60.1659 76.0502 58.141 76.5558 57.1538C77.0615 56.1666 77.643 54.9011 78.1233 53.7367L78.629 52.7496C78.8643 52.3667 79.0351 51.9477 79.1346 51.5093C79.1346 51.2056 78.5531 50.8512 78.1992 50.5475L77.8705 50.1678C76.3178 48.072 75.1533 45.7145 74.4321 43.2071C73.8759 41.7137 73.6989 39.1319 71.9038 39.1319C71.4487 39.1319 70.9431 39.1319 70.4627 39.1319C69.9823 39.1319 69.0469 38.9294 69.0469 38.3725C69.0469 37.8157 69.4514 37.7904 69.8812 37.7904H74.2551C74.4826 37.7904 75.2411 37.7904 75.9237 37.7904C76.6064 37.7904 77.4407 37.9169 77.4407 38.3979C77.4407 38.8788 76.4294 39.1825 75.5951 39.1825H74.963C74.5585 39.1825 74.3309 39.4103 74.4321 39.79C74.6343 40.5747 75.0641 41.4606 75.317 42.1693C75.7468 43.2577 76.1007 44.3208 76.5811 45.3839C77.0666 46.8239 77.784 48.1748 78.7048 49.3831C78.7784 49.5005 78.8837 49.5947 79.0085 49.6548C79.1333 49.7148 79.2725 49.7382 79.41 49.7223C79.5476 49.7064 79.6778 49.6519 79.7857 49.565C79.8935 49.4781 79.9746 49.3624 80.0195 49.2312C80.1712 48.7503 80.2976 48.2188 80.3988 47.9404C81.3595 45.5864 82.2697 42.878 83.0534 40.3468C83.281 39.6128 82.9018 39.1572 82.1433 39.0813C81.3848 39.0053 81.1825 38.8535 81.1825 38.4485C81.1825 38.0435 81.5112 37.7397 82.1938 37.7397C84.7221 37.7397 86.3655 37.9169 88.4892 37.9169H89.6775C90.7899 37.9169 91.1186 38.4738 91.1186 38.7016C91.1186 38.9294 90.7394 39.056 90.3348 39.1572C90.0594 39.1969 89.7995 39.3092 89.5818 39.4827C89.364 39.6562 89.1964 39.8845 89.096 40.1444C87.8824 43.5867 86.947 46.9532 85.9609 50.2184Z" fill="#B980D1"/>
<path d="M94.9616 39.309C94.5571 39.309 94.2031 39.1318 94.2031 38.7015C94.2031 38.2712 95.088 37.9675 95.8718 37.9675C101.712 37.9675 107.578 37.9675 113.418 37.7903C113.822 37.7903 114.808 37.6384 115.592 37.6384C116.376 37.6384 117.008 38.1953 117.008 38.3725C117.008 39.3596 115.087 38.3725 115.087 39.9165C115.087 45.89 115.491 51.9395 115.491 57.9384C115.491 58.2168 115.491 59.1787 115.491 59.5583C115.491 59.938 115.82 60.343 115.997 60.343C116.174 60.343 117.084 60.343 117.084 60.9505C117.084 61.558 111.825 61.7351 109.499 61.7351C108.665 61.7351 107.502 61.7351 107.502 61.1783C107.502 60.6214 108.387 60.4442 108.943 60.4442C109.499 60.4442 109.727 59.6596 109.727 58.8243C109.727 57.989 109.727 57.4828 109.727 57.1537C109.727 55.711 109.727 54.2935 109.727 52.9014C109.727 48.649 109.347 44.4979 109.347 40.2455C109.347 39.309 109.347 38.9799 108.791 38.9799C106.996 38.9799 105.277 38.9799 103.532 38.9799H102.521C101.864 38.9799 101.864 39.1571 101.864 39.6634C101.864 40.1696 101.864 40.4227 101.864 40.5493C101.864 43.2829 101.864 45.966 101.864 48.649C101.864 51.332 102.192 54.6479 102.192 57.66C102.192 59.2799 102.192 60.343 102.976 60.343H103.482C103.627 60.3492 103.765 60.4099 103.868 60.513C103.971 60.6161 104.032 60.7542 104.038 60.8999C104.038 61.5073 103.305 61.7351 102.066 61.7351H95.8212C95.1639 61.7351 94.7593 61.4567 94.7593 61.1783C94.7593 60.8999 94.9869 60.7227 95.4925 60.5202C96.428 60.1911 96.5038 60.6721 96.5038 59.609C96.074 53.4835 96.074 46.6241 96.074 40.3468C96.074 39.6887 95.6442 39.3596 94.9869 39.309H94.9616Z" fill="#B980D1"/>
<path d="M124.112 37.9677C134.453 37.5628 137.664 37.6134 138.068 38.1196C138.473 38.6258 138.068 42.5998 137.436 42.5998C136.804 42.5998 136.956 42.1695 136.956 40.828V39.9674C136.967 39.8504 136.953 39.7324 136.914 39.6215C136.875 39.5106 136.813 39.4095 136.731 39.3252C136.649 39.2409 136.55 39.1755 136.44 39.1334C136.331 39.0913 136.213 39.0736 136.096 39.0815H129.194C128.856 39.0591 128.518 39.1092 128.201 39.2285C127.884 39.3478 127.596 39.5335 127.357 39.7731C127.117 40.0128 126.932 40.3009 126.813 40.6181C126.693 40.9354 126.643 41.2744 126.666 41.6126V44.1438C126.559 45.8927 126.626 47.6479 126.868 49.3833C126.994 49.3833 127.778 49.3833 128.789 48.8771C131.191 47.8646 132.986 47.8899 134.099 49.0036C134.756 49.7124 134.883 50.0161 134.604 50.2945C134.326 50.573 133.972 50.497 133.264 49.9908C132.076 49.1049 131.065 49.2061 128.208 50.4464L127.273 50.8514C126.992 50.9679 126.755 51.1701 126.596 51.4292C126.438 51.6883 126.364 51.991 126.388 52.2942L126.539 55.4834C126.522 57.0567 126.727 58.6245 127.146 60.1408C127.424 60.4698 128.436 60.5711 131.444 60.5204H133.972C134.15 60.5238 134.327 60.4916 134.493 60.4257C134.658 60.3598 134.809 60.2615 134.936 60.1366C135.063 60.0117 135.164 59.8627 135.233 59.6982C135.302 59.5338 135.338 59.3573 135.338 59.1789V57.888C135.338 55.9137 135.616 55.3569 135.995 55.3569C136.374 55.3569 136.526 55.6859 136.526 58.2171V59.8117C136.541 60.025 136.51 60.239 136.435 60.4393C136.361 60.6396 136.244 60.8215 136.093 60.9726C135.942 61.1238 135.76 61.2408 135.56 61.3156C135.36 61.3904 135.146 61.4214 134.933 61.4064H127.753C125.054 61.564 122.346 61.4792 119.662 61.1532C119.485 60.9761 119.662 60.8495 119.814 60.7483L121.154 60.2926L121.559 60.1408C121.617 60.126 121.672 60.0999 121.72 60.0639C121.768 60.0278 121.808 59.9826 121.839 59.9309C121.869 59.8791 121.889 59.8218 121.898 59.7622C121.906 59.7027 121.902 59.6421 121.887 59.5839L121.508 57.7868C121.079 54.3698 120.868 50.9288 120.876 47.4849L120.699 39.7649C120.689 39.6408 120.646 39.5217 120.575 39.4195C120.504 39.3173 120.407 39.2356 120.295 39.1827L119.764 38.9549C119.46 38.803 119.283 38.5499 119.334 38.3727C119.384 38.1955 120.851 37.9171 124.137 37.8159L124.112 37.9677Z" fill="#B980D1"/>
<path d="M149.471 43.3839C149.471 48.4463 149.471 52.8505 149.951 57.5585C149.951 58.495 149.724 60.0897 150.735 60.0897H153.263C155.362 60.0897 155.21 59.5328 155.16 58.6469C155.146 58.47 155.146 58.2923 155.16 58.1153C155.589 53.2049 155.64 48.2691 155.64 43.3586C155.64 42.2449 155.589 41.1312 155.488 40.0175C155.362 38.7266 153.744 39.6884 153.744 38.7772C153.744 37.866 154.705 37.9419 155.64 37.9419C157.663 37.9419 159.508 37.9419 161.531 38.0685H162.239C162.921 38.0685 163.25 38.4229 163.25 38.7519C163.25 39.081 161.733 39.3594 161.733 39.3594C161.733 39.3594 161.303 39.7644 161.303 40.7768C161.303 41.2578 161.303 41.764 161.303 42.2196C161.303 47.0288 161.303 51.838 161.025 56.6473C161.025 57.5585 160.848 59.0519 160.848 59.5581C160.848 60.0643 162.744 59.5581 162.744 60.849C162.462 62.4057 161.701 63.8352 160.568 64.9379C159.435 66.0407 157.986 66.7615 156.424 66.9997C153.643 66.9997 151.569 65.0254 148.839 65.0254C147.777 65.0254 147.575 65.7595 147.019 65.7595C146.878 65.7473 146.746 65.684 146.648 65.5814C146.55 65.4789 146.493 65.3442 146.488 65.2026C146.488 63.4308 150.255 62.9246 151.19 62.9246C152.758 62.9246 154.477 63.3042 156.044 63.3042C157.612 63.3042 160.368 62.469 160.368 61.2793C160.368 61.1274 160.09 61.0768 159.862 61.0768C155.109 61.0768 150.457 61.3046 145.83 61.3046C144.591 61.3046 143.302 61.3046 143.302 60.6212C143.302 59.9378 144.136 60.2922 144.136 59.4569C144.136 54.0149 143.732 48.2185 143.732 42.6246C143.732 42.0424 143.732 41.3843 143.732 40.7515C143.784 40.2836 143.706 39.8103 143.504 39.3847C143.444 39.3589 143.38 39.3457 143.315 39.3457C143.25 39.3457 143.185 39.3589 143.125 39.3847C142.974 39.3974 142.821 39.3974 142.67 39.3847C142.24 39.3847 141.886 39.0303 141.886 38.7013C141.886 37.7901 145.856 37.9166 149.168 37.9166C150.179 37.9166 151.19 38.0685 151.19 38.676C151.19 39.2835 150.659 39.3088 150.229 39.3088H149.926C149.84 39.3022 149.754 39.3201 149.678 39.3604C149.602 39.4007 149.539 39.4618 149.496 39.5366C149.348 40.8143 149.34 42.1044 149.471 43.3839Z" fill="#B980D1"/>
</svg>
